<svg aria-hidden="true" style="position: absolute; width: 0; height: 0; overflow: hidden;" version="1.1" xmlns="http://www.w3.org/2000/svg" xmlns:xlink="http://www.w3.org/1999/xlink">
<defs>
<symbol id="icon-alarm" viewBox="0 0 32 32">
<title>alarm</title>
<path  d="M30.74 10.003c-1.623-3.715-4.528-6.62-8.142-8.204l-0.101-0.039c1-0.787 2.258-1.26 3.629-1.26 3.244 0 5.874 2.63 5.874 5.874v0c0 0.001 0 0.002 0 0.003 0 1.375-0.475 2.639-1.269 3.637l0.009-0.012zM30.5 16.5c0 3.852-1.512 7.343-3.963 9.94l2.029 2.028c0.268 0.268 0.434 0.639 0.434 1.049 0 0.819-0.664 1.483-1.483 1.483-0.41 0-0.781-0.166-1.049-0.435l-2.178-2.178c-2.307 1.635-5.179 2.613-8.28 2.613-0.003 0-0.007 0-0.010 0h0.001c-3.079 0-5.928-0.966-8.276-2.603l-2.163 2.163c-0.271 0.272-0.647 0.44-1.061 0.44-0.829 0-1.5-0.672-1.5-1.5 0-0.414 0.168-0.789 0.439-1.061l2.012-2.012c-2.443-2.595-3.951-6.082-3.951-9.927 0-8.008 6.492-14.5 14.5-14.5s14.5 6.492 14.5 14.5zM16 5c-6.351 0-11.5 5.148-11.5 11.5 0 6.351 5.149 11.5 11.5 11.5s11.5-5.149 11.5-11.5c0-6.352-5.149-11.5-11.5-11.5zM22 18h-6c-0.828 0-1.5-0.672-1.5-1.5v0-8c0-0.828 0.672-1.5 1.5-1.5s1.5 0.672 1.5 1.5v0 6.499h4.5c0.829 0 1.5 0.672 1.5 1.5s-0.672 1.5-1.5 1.5v0zM1.287 10.205c-0.802-1.007-1.287-2.297-1.287-3.701 0-0.002 0-0.003 0-0.005v0c0-3.314 2.686-6 6-6v0c1.4 0 2.685 0.483 3.706 1.287-3.795 1.658-6.761 4.624-8.379 8.315l-0.040 0.103z"></path>
</symbol>
<symbol id="icon-book" viewBox="0 0 32 32">
<title>book</title>
<path  d="M31.065 25.889l-14.471 5.988c-0.175 0.078-0.379 0.124-0.594 0.124s-0.419-0.046-0.604-0.127l0.009 0.004-14.471-5.988c-0.553-0.229-0.935-0.764-0.935-1.389v-23c0-0.828 0.672-1.5 1.5-1.5 0.207 0 0.404 0.042 0.583 0.117l-0.010-0.004h0.001l0.002 0.001 0.013 0.005 13.911 5.756 13.927-5.762c0.169-0.072 0.366-0.114 0.573-0.114 0.828 0 1.5 0.671 1.5 1.5v0 23c-0 0.625-0.382 1.16-0.925 1.385l-0.010 0.004zM14.5 8.503l-11.5-4.759v19.753l11.5 4.759v-19.753zM29 3.744l-11.5 4.759v19.753l11.5-4.759v-19.753zM19.879 10.634l5.5-2.5c0.182-0.085 0.396-0.135 0.621-0.135 0.828 0 1.5 0.672 1.5 1.5 0 0.603-0.356 1.123-0.87 1.362l-0.009 0.004-5.5 2.5c-0.182 0.085-0.396 0.135-0.621 0.135-0.828 0-1.5-0.672-1.5-1.5 0-0.603 0.356-1.123 0.87-1.362l0.009-0.004zM19.879 16.134l5.5-2.5c0.182-0.085 0.396-0.135 0.621-0.135 0.828 0 1.5 0.672 1.5 1.5 0 0.603-0.356 1.123-0.87 1.362l-0.009 0.004-5.5 2.5c-0.182 0.085-0.396 0.135-0.621 0.135-0.828 0-1.5-0.672-1.5-1.5 0-0.603 0.356-1.123 0.87-1.362l0.009-0.004zM19.879 21.634l5.5-2.5c0.182-0.085 0.396-0.135 0.621-0.135 0.828 0 1.5 0.672 1.5 1.5 0 0.603-0.356 1.123-0.87 1.362l-0.009 0.004-5.5 2.5c-0.182 0.085-0.396 0.135-0.621 0.135-0.828 0-1.5-0.672-1.5-1.5 0-0.603 0.356-1.123 0.87-1.362l0.009-0.004zM6 8c0.221 0 0.431 0.048 0.621 0.134l5.5 2.5c0.497 0.252 0.832 0.758 0.832 1.344 0 0.829-0.672 1.501-1.501 1.501-0.207 0-0.404-0.042-0.583-0.117l0.010 0.004-5.5-2.5c-0.522-0.242-0.878-0.762-0.878-1.365 0-0.828 0.671-1.499 1.499-1.5h0zM6 13.5c0.221 0 0.431 0.048 0.621 0.134l5.5 2.5c0.497 0.252 0.832 0.759 0.832 1.344 0 0.829-0.672 1.501-1.501 1.501-0.207 0-0.404-0.042-0.583-0.117l0.010 0.004-5.5-2.5c-0.522-0.242-0.878-0.762-0.878-1.365 0-0.828 0.671-1.499 1.499-1.5h0zM6 19c0.221 0 0.431 0.048 0.621 0.134l5.5 2.5c0.497 0.252 0.832 0.759 0.832 1.344 0 0.829-0.672 1.501-1.501 1.501-0.207 0-0.404-0.042-0.583-0.117l0.010 0.004-5.5-2.5c-0.522-0.242-0.878-0.762-0.878-1.365 0-0.828 0.671-1.499 1.499-1.5h0z"></path>
</symbol>
<symbol id="icon-computer" viewBox="0 0 32 32">
<title>computer</title>
<path  d="M30.452 25.29h-9.806v2.58l2.065 2.066v0.516h-13.419v-0.516l2.065-2.066v-2.58h-9.806c-0.855 0-1.548-0.693-1.548-1.548 0-0 0-0.001 0-0.001v0-20.644c0-0.855 0.693-1.548 1.548-1.548v0h28.903c0.855 0 1.548 0.693 1.548 1.548v0 20.644c0 0 0 0.001 0 0.001 0 0.855-0.693 1.548-1.548 1.548v0zM29.935 3.613h-27.871v17.548h27.871v-17.548zM12.903 10.839c0.427 0 0.814 0.173 1.095 0.453l0.969 0.969 3.034-3.034c0.28-0.28 0.668-0.454 1.095-0.454 0.855 0 1.549 0.693 1.549 1.549 0 0.428-0.173 0.815-0.454 1.095l-4.129 4.129c-0.28 0.281-0.667 0.454-1.095 0.454s-0.815-0.174-1.095-0.454l-2.065-2.066c-0.28-0.28-0.453-0.667-0.453-1.094 0-0.855 0.693-1.548 1.548-1.548h0z"></path>
</symbol>
<symbol id="icon-glass" viewBox="0 0 32 32">
<title>glass</title>
<path  d="M31.105 26.862c0.542 0.542 0.878 1.291 0.878 2.119 0 1.655-1.342 2.996-2.996 2.996-0.827 0-1.577-0.335-2.119-0.878l-8.78-8.78c-1.736 1.048-3.833 1.669-6.075 1.669-0.001 0-0.002 0-0.002 0h0c-6.618 0-11.983-5.365-11.983-11.983s5.365-11.983 11.983-11.983c6.618 0 11.983 5.365 11.983 11.983v0c-0 2.242-0.62 4.34-1.698 6.13l0.030-0.054 8.78 8.78zM12.011 3.018c-4.963 0-8.987 4.024-8.987 8.987s4.024 8.987 8.987 8.987v0c4.963 0 8.987-4.024 8.987-8.987s-4.024-8.987-8.987-8.987v0z"></path>
</symbol>
<symbol id="icon-home" viewBox="0 0 32 32">
<title>home</title>
<path  d="M32 16.5c-0.001 0.828-0.672 1.499-1.5 1.499v0c-0.395-0-0.754-0.154-1.021-0.406l0.001 0.001-0.003 0.004-13.477-13.476-13.447 13.446c-0.273 0.278-0.652 0.451-1.072 0.451-0.828 0-1.5-0.672-1.5-1.5 0-0.434 0.184-0.825 0.479-1.099l0.001-0.001 14.458-14.459c0.273-0.283 0.656-0.46 1.081-0.46h0.001c0.026 0 0.052 0 0.079 0.002l0.012 0.001 0.068 0.005 0.004 0.001c0.367 0.040 0.694 0.212 0.933 0.468l0.001-0.001 5.902 5.902v-1.378c0-0.828 0.672-1.5 1.5-1.5s1.5 0.672 1.5 1.5v0 4.378l5.598 5.598-0.004 0.004c0.25 0.268 0.406 0.625 0.406 1.020zM29 19v10.5c0 0.828-0.672 1.5-1.5 1.5v0h-3v-12h-6v12h-14c-0.828 0-1.5-0.672-1.5-1.5v0-10.5l13-13 13 13zM13.5 19h-6v6h6v-6z"></path>
</symbol>
<symbol id="icon-image" viewBox="0 0 32 32">
<title>image</title>
<path  d="M30.5 32h-29c-0.828 0-1.5-0.672-1.5-1.5v0-29c0-0.828 0.672-1.5 1.5-1.5v0h29c0.828 0 1.5 0.672 1.5 1.5v0 29c0 0.828-0.672 1.5-1.5 1.5v0zM29 3h-26v26h26v-26zM6.5 4.5h5.5c0.828 0 1.5 0.672 1.5 1.5s-0.672 1.5-1.5 1.5v0h-4.5v4.5c0 0.828-0.672 1.5-1.5 1.5s-1.5-0.672-1.5-1.5v0-7.5h2zM4.5 20c0-0.828 0.672-1.5 1.5-1.5s1.5 0.672 1.5 1.5v0 4.499l4.5 0.001c0.828 0 1.5 0.672 1.5 1.5s-0.672 1.5-1.5 1.5v0h-7.5v-7.5zM20 4.5h7.5v7.5c0 0.828-0.672 1.5-1.5 1.5s-1.5-0.672-1.5-1.5v0-4.5h-4.5c-0.828 0-1.5-0.672-1.5-1.5s0.672-1.5 1.5-1.5v0zM20 24.5v-0.001h4.5v-4.499c0-0.828 0.672-1.5 1.5-1.5s1.5 0.672 1.5 1.5v0 7.5h-7.5c-0.828 0-1.5-0.672-1.5-1.5s0.672-1.5 1.5-1.5v0z"></path>
</symbol>
<symbol id="icon-line-graph" viewBox="0 0 32 32">
<title>line-graph</title>
<path  d="M30.5 32h-29c-0.828 0-1.5-0.672-1.5-1.5v0-29.001c0.001-0.828 0.672-1.499 1.5-1.499h29c0.828 0 1.499 0.671 1.5 1.499v29.001c0 0.828-0.672 1.5-1.5 1.5v0zM29 3h-26v26h26v-26zM5.215 16.239v-0.002l4-2.498c0.223-0.14 0.495-0.223 0.785-0.223 0.313 0 0.604 0.096 0.845 0.261l-0.005-0.003 0.006-0.008 6.631 4.42 7.638-5.391c0.237-0.165 0.532-0.264 0.849-0.264 0.828 0 1.5 0.672 1.5 1.5 0 0.483-0.228 0.913-0.583 1.187l-0.003 0.003h0.001l-8.501 6c-0.246 0.179-0.55 0.284-0.878 0.284-0.321 0-0.618-0.101-0.861-0.272l-6.657-4.438-3.135 1.96c-0.223 0.138-0.493 0.22-0.783 0.22-0.828 0-1.5-0.672-1.5-1.5 0-0.511 0.255-0.962 0.646-1.233l0.005-0.003z"></path>
</symbol>
<symbol id="icon-shopping-cart" viewBox="0 0 32 32">
<title>shopping-cart</title>
<path  d="M31.194 9.076l0.002 0.002-4.403 9.784c-0.222 0.485-0.687 0.824-1.235 0.861l-0.004 0-12.68 0.845 0.733 2.094h13.806c1.621 0 2.935 1.314 2.935 2.935s-1.314 2.935-2.935 2.935c-1.621 0-2.935-1.314-2.935-2.935v0h-13.697c0 1.621-1.314 2.935-2.935 2.935s-2.935-1.314-2.935-2.935c0-1.621 1.314-2.935 2.935-2.935v0h2.652l-5.65-16.143h-3.362c-0.81 0-1.468-0.657-1.468-1.468s0.657-1.468 1.468-1.468v0h4.403c0.64 0 1.179 0.413 1.38 0.985l0.005-0.002 0.854 2.441h21.73c0.809 0.002 1.465 0.658 1.465 1.468 0 0.218-0.047 0.425-0.133 0.61l0.004-0.009zM9.156 9.942l2.713 7.75 12.61-0.84 3.109-6.911h-18.432z"></path>
</symbol>
<symbol id="icon-facebook" viewBox="0 0 17 32">
<title>facebook</title>
<path  d="M14.444 2.426v4.546s-3.352-0.333-4.192 0.951c-0.459 0.702-0.186 2.759-0.227 4.235h4.447c-0.376 1.726-0.646 2.895-0.922 4.39h-3.549v14.129h-6.161v-14.073h-2.62v-4.444h2.592c0.132-3.251 0.182-6.471 1.798-8.11 1.814-1.843 3.545-1.622 8.833-1.622z"></path>
</symbol>
<symbol id="icon-instagram" viewBox="0 0 32 32">
<title>instagram</title>
<path  d="M27.086 30.629h-21.943c-2.020 0-3.657-1.637-3.657-3.657v0-21.943c0-2.020 1.637-3.657 3.657-3.657v0h21.943c2.020 0 3.657 1.637 3.657 3.657v0 21.943c0 2.020-1.637 3.657-3.657 3.657v0zM16.114 10.331c-2.266 0.001-4.221 1.333-5.126 3.257l-0.015 0.035h-0.006l-0.025 0.062c-0.039 0.083-0.088 0.204-0.134 0.328l-0.013 0.039c-0.023 0.061-0.046 0.119-0.065 0.178-0.030 0.088-0.068 0.217-0.1 0.349l-0.008 0.039c-0.016 0.061-0.034 0.121-0.048 0.183-0.023 0.104-0.048 0.247-0.067 0.392l-0.003 0.029c-0.008 0.057-0.019 0.113-0.026 0.171-0.021 0.185-0.034 0.4-0.034 0.617 0 3.131 2.538 5.669 5.669 5.669s5.669-2.538 5.669-5.669c0-0.217-0.012-0.432-0.036-0.643l0.002 0.026c-0.006-0.058-0.017-0.114-0.025-0.171-0.022-0.174-0.047-0.317-0.076-0.458l0.007 0.037c-0.014-0.062-0.032-0.122-0.048-0.183-0.041-0.171-0.078-0.301-0.12-0.429l0.011 0.040c-0.019-0.059-0.043-0.118-0.065-0.178-0.058-0.162-0.107-0.283-0.161-0.401l0.014 0.036-0.025-0.064h-0.006c-0.92-1.958-2.875-3.289-5.14-3.29h-0zM27.451 6.126c0-0.808-0.655-1.463-1.463-1.463v0h-2.926c-0.808 0-1.463 0.655-1.463 1.463v2.926c0 0.808 0.655 1.463 1.463 1.463h2.926c0.808 0 1.463-0.655 1.463-1.463v0-2.926zM27.451 13.623h-2.697c0.204 0.713 0.321 1.531 0.321 2.377 0 4.948-4.012 8.96-8.96 8.96-0 0-0.001 0-0.001 0h0c-0 0-0.001 0-0.001 0-4.948 0-8.96-4.012-8.96-8.96 0-0.846 0.117-1.664 0.336-2.44l-0.015 0.063h-2.697v12.251c0 0.808 0.655 1.463 1.463 1.463h19.749c0.808 0 1.463-0.655 1.463-1.463v0-12.251z"></path>
</symbol>
<symbol id="icon-pinterest" viewBox="0 0 25 32">
<title>pinterest</title>
<path  d="M11.090 19.701c-0.23 0.919-0.462 1.882-0.703 2.825-0.237 0.929-0.447 1.871-0.792 2.726-0.573 1.414-1.3 2.781-2.254 3.885-0.634 0.736-0.5 0.441-0.691 0.403-0.146-0.031-0.158-0.173-0.188-0.381-0.154-1.123-0.049-2.422 0.009-3.686 0.066-1.438 0.369-2.634 0.65-3.829 0.534-2.278 1.044-4.51 1.583-6.802 0.035-0.152 0.132-0.404 0.099-0.491-0.245-0.637-0.404-1.208-0.473-1.876-0.023-0.195-0.036-0.421-0.036-0.651 0-0.531 0.069-1.046 0.199-1.536l-0.009 0.042c0.305-1.167 1.006-2.201 2.089-2.58 0.689-0.238 1.451-0.13 1.914 0.146 0.477 0.286 0.804 0.736 0.957 1.375 0.163 0.679 0.043 1.49-0.088 2.087-0.295 1.345-0.682 2.355-1.034 3.652-0.174 0.643-0.372 1.304-0.21 1.999 0.151 0.638 0.483 1.077 0.936 1.407 0.47 0.342 1.026 0.53 1.793 0.502 1.355-0.047 2.296-0.914 2.925-1.73 1.007-1.308 1.617-3.072 1.848-5.171 0.074-0.678 0.129-1.455 0.077-2.222-0.097-1.417-0.541-2.557-1.244-3.439-0.669-0.842-1.618-1.512-2.772-1.887-1.144-0.375-2.728-0.499-4.135-0.258-2.558 0.438-4.361 1.891-5.423 3.898-0.582 1.066-0.924 2.336-0.924 3.685 0 0.027 0 0.055 0 0.082l-0-0.004c0 1.159 0.287 2.058 0.748 2.759 0.147 0.222 0.362 0.405 0.505 0.659 0.204 0.36-0.031 0.895-0.132 1.284-0.121 0.469-0.132 1.117-0.681 1.128-0.227 0.004-0.512-0.161-0.704-0.268-1.44-0.796-2.314-2.243-2.673-4.12-0.104-0.537-0.163-1.155-0.163-1.786s0.059-1.249 0.173-1.848l-0.010 0.061c0.21-1.067 0.6-2.050 1.034-2.848 0.908-1.647 2.204-2.979 3.769-3.906l0.047-0.026c1.231-0.728 2.621-1.239 4.311-1.485 0.509-0.071 1.121-0.124 1.741-0.145l0.030-0.001c0.144-0.007 0.312-0.011 0.481-0.011 1.553 0 3.029 0.333 4.36 0.932l-0.067-0.027c1.291 0.577 2.385 1.377 3.281 2.36l0.007 0.008c0.925 1.010 1.598 2.185 2.024 3.651 0.223 0.764 0.439 1.58 0.439 2.524 0 0.947-0.2 1.78-0.34 2.613-0.523 3.121-2.007 5.673-4.235 7.126-0.557 0.369-1.199 0.673-1.884 0.879l-0.052 0.013c-0.736 0.214-1.576 0.375-2.475 0.312-0.81-0.047-1.557-0.278-2.213-0.65l0.025 0.013c-0.596-0.337-1.097-0.749-1.452-1.373z"></path>
</symbol>
<symbol id="icon-twitter" viewBox="0 0 37 32">
<title>twitter</title>
<path  d="M24.684 2.135c2.712-0.048 4.156 0.94 5.533 2.196 1.172-0.1 2.693-0.753 3.589-1.209l0.871-0.476c-0.512 1.383-1.205 2.467-2.272 3.288-0.237 0.181-0.472 0.428-0.769 0.544v0.017c1.52-0.015 2.773-0.701 3.964-1.073v0.017c-0.625 0.993-1.472 2.003-2.375 2.725l-1.093 0.868c0.020 1.609-0.024 3.145-0.324 4.497-1.749 7.86-6.384 13.196-13.72 15.483-2.633 0.82-6.889 1.157-9.907 0.408-1.497-0.371-2.849-0.791-4.117-1.345-0.78-0.339-1.431-0.681-2.054-1.063l0.071 0.041-0.615-0.373c0.68 0.020 1.477 0.208 2.237 0.084 0.689-0.111 1.364-0.081 2-0.22 1.584-0.348 2.991-0.808 4.201-1.517 0.588-0.344 1.48-0.747 1.897-1.243-0.787 0.013-1.5-0.169-2.084-0.375-2.267-0.8-3.584-2.271-4.443-4.48 0.687 0.076 2.664 0.253 3.127-0.136-0.864-0.048-1.695-0.548-2.289-0.92-1.823-1.14-3.308-3.052-3.297-5.995l0.717 0.34c0.459 0.193 0.924 0.296 1.469 0.409 0.231 0.048 0.693 0.183 0.957 0.084h-0.035c-0.352-0.409-0.927-0.683-1.28-1.124-1.171-1.453-2.267-3.688-1.573-6.352 0.195-0.694 0.451-1.3 0.773-1.863l-0.021 0.040 0.035 0.016c0.136 0.285 0.44 0.495 0.632 0.733 0.597 0.74 1.333 1.405 2.084 1.992 2.557 2 4.86 3.229 8.56 4.139 0.937 0.232 2.021 0.408 3.143 0.409-0.315-0.916-0.213-2.4 0.033-3.287 0.624-2.232 1.977-3.84 3.964-4.701 0.441-0.19 0.961-0.355 1.5-0.468l0.055-0.010 0.853-0.101z"></path>
</symbol>
</defs>
</svg>
